%TF.GenerationSoftware,KiCad,Pcbnew,9.0.6-9.0.6~ubuntu25.10.1*%
%TF.CreationDate,2026-01-02T08:01:00-08:00*%
%TF.ProjectId,CAN_IMU,43414e5f-494d-4552-9e6b-696361645f70,rev?*%
%TF.SameCoordinates,Original*%
%TF.FileFunction,Paste,Top*%
%TF.FilePolarity,Positive*%
%FSLAX46Y46*%
G04 Gerber Fmt 4.6, Leading zero omitted, Abs format (unit mm)*
G04 Created by KiCad (PCBNEW 9.0.6-9.0.6~ubuntu25.10.1) date 2026-01-02 08:01:00*
%MOMM*%
%LPD*%
G01*
G04 APERTURE LIST*
G04 Aperture macros list*
%AMRoundRect*
0 Rectangle with rounded corners*
0 $1 Rounding radius*
0 $2 $3 $4 $5 $6 $7 $8 $9 X,Y pos of 4 corners*
0 Add a 4 corners polygon primitive as box body*
4,1,4,$2,$3,$4,$5,$6,$7,$8,$9,$2,$3,0*
0 Add four circle primitives for the rounded corners*
1,1,$1+$1,$2,$3*
1,1,$1+$1,$4,$5*
1,1,$1+$1,$6,$7*
1,1,$1+$1,$8,$9*
0 Add four rect primitives between the rounded corners*
20,1,$1+$1,$2,$3,$4,$5,0*
20,1,$1+$1,$4,$5,$6,$7,0*
20,1,$1+$1,$6,$7,$8,$9,0*
20,1,$1+$1,$8,$9,$2,$3,0*%
G04 Aperture macros list end*
%ADD10RoundRect,0.200000X0.200000X0.275000X-0.200000X0.275000X-0.200000X-0.275000X0.200000X-0.275000X0*%
%ADD11RoundRect,0.200000X0.275000X-0.200000X0.275000X0.200000X-0.275000X0.200000X-0.275000X-0.200000X0*%
%ADD12RoundRect,0.225000X-0.225000X-0.250000X0.225000X-0.250000X0.225000X0.250000X-0.225000X0.250000X0*%
%ADD13R,0.750000X0.650000*%
%ADD14RoundRect,0.062500X0.187500X0.062500X-0.187500X0.062500X-0.187500X-0.062500X0.187500X-0.062500X0*%
%ADD15R,4.100000X1.850000*%
%ADD16R,1.300000X0.270000*%
%ADD17RoundRect,0.150000X-0.512500X-0.150000X0.512500X-0.150000X0.512500X0.150000X-0.512500X0.150000X0*%
%ADD18RoundRect,0.150000X-0.587500X-0.150000X0.587500X-0.150000X0.587500X0.150000X-0.587500X0.150000X0*%
%ADD19RoundRect,0.225000X0.225000X0.250000X-0.225000X0.250000X-0.225000X-0.250000X0.225000X-0.250000X0*%
%ADD20RoundRect,0.225000X-0.250000X0.225000X-0.250000X-0.225000X0.250000X-0.225000X0.250000X0.225000X0*%
%ADD21RoundRect,0.100000X-0.100000X0.225000X-0.100000X-0.225000X0.100000X-0.225000X0.100000X0.225000X0*%
%ADD22RoundRect,0.250000X0.650000X-1.000000X0.650000X1.000000X-0.650000X1.000000X-0.650000X-1.000000X0*%
%ADD23RoundRect,0.200000X-0.275000X0.200000X-0.275000X-0.200000X0.275000X-0.200000X0.275000X0.200000X0*%
%ADD24RoundRect,0.250000X-0.475000X0.250000X-0.475000X-0.250000X0.475000X-0.250000X0.475000X0.250000X0*%
%ADD25RoundRect,0.075000X-0.662500X-0.075000X0.662500X-0.075000X0.662500X0.075000X-0.662500X0.075000X0*%
%ADD26RoundRect,0.075000X-0.075000X-0.662500X0.075000X-0.662500X0.075000X0.662500X-0.075000X0.662500X0*%
%ADD27RoundRect,0.225000X0.250000X-0.225000X0.250000X0.225000X-0.250000X0.225000X-0.250000X-0.225000X0*%
%ADD28RoundRect,0.200000X-0.200000X-0.275000X0.200000X-0.275000X0.200000X0.275000X-0.200000X0.275000X0*%
%ADD29RoundRect,0.218750X-0.381250X0.218750X-0.381250X-0.218750X0.381250X-0.218750X0.381250X0.218750X0*%
%ADD30RoundRect,0.250000X-0.250000X-0.250000X0.250000X-0.250000X0.250000X0.250000X-0.250000X0.250000X0*%
%ADD31RoundRect,0.150000X0.150000X-0.512500X0.150000X0.512500X-0.150000X0.512500X-0.150000X-0.512500X0*%
%ADD32RoundRect,0.250000X0.250000X2.500000X-0.250000X2.500000X-0.250000X-2.500000X0.250000X-2.500000X0*%
%ADD33RoundRect,0.250000X0.550000X1.250000X-0.550000X1.250000X-0.550000X-1.250000X0.550000X-1.250000X0*%
%ADD34R,1.050000X0.650000*%
%ADD35RoundRect,0.250000X-0.970000X-0.310000X0.970000X-0.310000X0.970000X0.310000X-0.970000X0.310000X0*%
%ADD36RoundRect,0.097500X-0.977500X0.227500X-0.977500X-0.227500X0.977500X-0.227500X0.977500X0.227500X0*%
%ADD37RoundRect,0.150000X-0.825000X-0.150000X0.825000X-0.150000X0.825000X0.150000X-0.825000X0.150000X0*%
%ADD38RoundRect,0.250000X0.475000X-0.250000X0.475000X0.250000X-0.475000X0.250000X-0.475000X-0.250000X0*%
%ADD39RoundRect,0.050000X-0.225000X-0.050000X0.225000X-0.050000X0.225000X0.050000X-0.225000X0.050000X0*%
%ADD40RoundRect,0.050000X0.050000X-0.225000X0.050000X0.225000X-0.050000X0.225000X-0.050000X-0.225000X0*%
%ADD41RoundRect,0.090000X-0.310000X0.210000X-0.310000X-0.210000X0.310000X-0.210000X0.310000X0.210000X0*%
%ADD42RoundRect,0.090000X-0.235000X0.210000X-0.235000X-0.210000X0.235000X-0.210000X0.235000X0.210000X0*%
%ADD43RoundRect,0.250000X-0.325000X-0.650000X0.325000X-0.650000X0.325000X0.650000X-0.325000X0.650000X0*%
G04 APERTURE END LIST*
D10*
%TO.C,R16*%
X53775000Y-66350000D03*
X52125000Y-66350000D03*
%TD*%
D11*
%TO.C,R1*%
X55500000Y-92825000D03*
X55500000Y-91175000D03*
%TD*%
D12*
%TO.C,C3*%
X60950000Y-65000000D03*
X62500000Y-65000000D03*
%TD*%
D13*
%TO.C,U5*%
X65300000Y-47000000D03*
X65300000Y-46200000D03*
D14*
X66250000Y-47350000D03*
X66250000Y-46850000D03*
X66250000Y-46350000D03*
X66250000Y-45850000D03*
X64350000Y-45850000D03*
X64350000Y-46350000D03*
X64350000Y-46850000D03*
X64350000Y-47350000D03*
%TD*%
D11*
%TO.C,R13*%
X80250000Y-89375000D03*
X80250000Y-87725000D03*
%TD*%
D15*
%TO.C,L1*%
X60600000Y-45775000D03*
X60600000Y-49425000D03*
%TD*%
D16*
%TO.C,J1*%
X58280000Y-93350000D03*
X58280000Y-92850000D03*
X58280000Y-92350000D03*
X58280000Y-91850000D03*
X58280000Y-91350000D03*
X58280000Y-90850000D03*
X58280000Y-90350000D03*
X58280000Y-89850000D03*
X58280000Y-89350000D03*
X58280000Y-88850000D03*
X58280000Y-88350000D03*
X58280000Y-87850000D03*
X61780000Y-87850000D03*
X61780000Y-88350000D03*
X61780000Y-88850000D03*
X61780000Y-89350000D03*
X61780000Y-89850000D03*
X61780000Y-90350000D03*
X61780000Y-90850000D03*
X61780000Y-91350000D03*
X61780000Y-91850000D03*
X61780000Y-92350000D03*
X61780000Y-92850000D03*
X61780000Y-93350000D03*
%TD*%
D17*
%TO.C,U3*%
X47362500Y-64050000D03*
X47362500Y-65000000D03*
X47362500Y-65950000D03*
X49637500Y-65950000D03*
X49637500Y-64050000D03*
%TD*%
D18*
%TO.C,D2*%
X56000000Y-58500000D03*
X56000000Y-60400000D03*
X57875000Y-59450000D03*
%TD*%
D19*
%TO.C,C4*%
X69025000Y-77500000D03*
X67475000Y-77500000D03*
%TD*%
D20*
%TO.C,C15*%
X76500000Y-92475000D03*
X76500000Y-94025000D03*
%TD*%
D21*
%TO.C,U10*%
X84400000Y-95700000D03*
X83750000Y-95700000D03*
X83100000Y-95700000D03*
X83100000Y-97600000D03*
X84400000Y-97600000D03*
%TD*%
D22*
%TO.C,D3*%
X74890000Y-51367500D03*
X74890000Y-47367500D03*
%TD*%
D23*
%TO.C,R7*%
X74100000Y-85675000D03*
X74100000Y-87325000D03*
%TD*%
D20*
%TO.C,C1*%
X56250000Y-84225000D03*
X56250000Y-85775000D03*
%TD*%
D24*
%TO.C,C7*%
X68150000Y-45700000D03*
X68150000Y-47600000D03*
%TD*%
D25*
%TO.C,U1*%
X60675000Y-68500000D03*
X60675000Y-69000000D03*
X60675000Y-69500000D03*
X60675000Y-70000000D03*
X60675000Y-70500000D03*
X60675000Y-71000000D03*
X60675000Y-71500000D03*
X60675000Y-72000000D03*
X60675000Y-72500000D03*
X60675000Y-73000000D03*
X60675000Y-73500000D03*
X60675000Y-74000000D03*
D26*
X62087500Y-75412500D03*
X62587500Y-75412500D03*
X63087500Y-75412500D03*
X63587500Y-75412500D03*
X64087500Y-75412500D03*
X64587500Y-75412500D03*
X65087500Y-75412500D03*
X65587500Y-75412500D03*
X66087500Y-75412500D03*
X66587500Y-75412500D03*
X67087500Y-75412500D03*
X67587500Y-75412500D03*
D25*
X69000000Y-74000000D03*
X69000000Y-73500000D03*
X69000000Y-73000000D03*
X69000000Y-72500000D03*
X69000000Y-72000000D03*
X69000000Y-71500000D03*
X69000000Y-71000000D03*
X69000000Y-70500000D03*
X69000000Y-70000000D03*
X69000000Y-69500000D03*
X69000000Y-69000000D03*
X69000000Y-68500000D03*
D26*
X67587500Y-67087500D03*
X67087500Y-67087500D03*
X66587500Y-67087500D03*
X66087500Y-67087500D03*
X65587500Y-67087500D03*
X65087500Y-67087500D03*
X64587500Y-67087500D03*
X64087500Y-67087500D03*
X63587500Y-67087500D03*
X63087500Y-67087500D03*
X62587500Y-67087500D03*
X62087500Y-67087500D03*
%TD*%
D27*
%TO.C,C6*%
X58650000Y-68875000D03*
X58650000Y-67325000D03*
%TD*%
D19*
%TO.C,C12*%
X91187500Y-91000000D03*
X89637500Y-91000000D03*
%TD*%
D11*
%TO.C,R9*%
X76950000Y-89375000D03*
X76950000Y-87725000D03*
%TD*%
D28*
%TO.C,R15*%
X52125000Y-64750000D03*
X53775000Y-64750000D03*
%TD*%
D21*
%TO.C,U9*%
X78500000Y-95750000D03*
X77850000Y-95750000D03*
X77200000Y-95750000D03*
X77200000Y-97650000D03*
X78500000Y-97650000D03*
%TD*%
D20*
%TO.C,C13*%
X80250000Y-95825000D03*
X80250000Y-97375000D03*
%TD*%
D29*
%TO.C,L2*%
X71590000Y-50307500D03*
X71590000Y-52432500D03*
%TD*%
D11*
%TO.C,R10*%
X78600000Y-89375000D03*
X78600000Y-87725000D03*
%TD*%
D30*
%TO.C,D1*%
X47250000Y-85000000D03*
X49750000Y-85000000D03*
%TD*%
D31*
%TO.C,U2*%
X52800000Y-86137500D03*
X53750000Y-86137500D03*
X54700000Y-86137500D03*
X54700000Y-83862500D03*
X53750000Y-83862500D03*
X52800000Y-83862500D03*
%TD*%
D27*
%TO.C,C8*%
X46500000Y-60275000D03*
X46500000Y-58725000D03*
%TD*%
D20*
%TO.C,C2*%
X71000000Y-67450000D03*
X71000000Y-69000000D03*
%TD*%
D32*
%TO.C,J3*%
X71590000Y-56450000D03*
X69590000Y-56450000D03*
X67590000Y-56450000D03*
X65590000Y-56450000D03*
X63590000Y-56450000D03*
D33*
X73990000Y-58700000D03*
X61190000Y-58700000D03*
%TD*%
D34*
%TO.C,SW1*%
X64975000Y-82425000D03*
X69125000Y-82425000D03*
X64975000Y-84575000D03*
X69125000Y-84575000D03*
%TD*%
D23*
%TO.C,R6*%
X71100000Y-85675000D03*
X71100000Y-87325000D03*
%TD*%
D27*
%TO.C,C14*%
X83150000Y-93195000D03*
X83150000Y-91645000D03*
%TD*%
D11*
%TO.C,R12*%
X85150000Y-89375000D03*
X85150000Y-87725000D03*
%TD*%
%TO.C,R2*%
X65000000Y-90150000D03*
X65000000Y-88500000D03*
%TD*%
D10*
%TO.C,R8*%
X45650000Y-64000000D03*
X44000000Y-64000000D03*
%TD*%
D35*
%TO.C,SW2*%
X47645000Y-71930000D03*
X47645000Y-74470000D03*
X56255000Y-74470000D03*
X56255000Y-71930000D03*
%TD*%
D36*
%TO.C,U6*%
X78292000Y-68972700D03*
X81942000Y-68972700D03*
X78292000Y-70242700D03*
X81942000Y-70242700D03*
X78292000Y-71512700D03*
X81942000Y-71512700D03*
X78292000Y-72782700D03*
X81942000Y-72782700D03*
X78292000Y-74052700D03*
X81942000Y-74052700D03*
%TD*%
D37*
%TO.C,U4*%
X48525000Y-57595000D03*
X48525000Y-58865000D03*
X48525000Y-60135000D03*
X48525000Y-61405000D03*
X53475000Y-61405000D03*
X53475000Y-60135000D03*
X53475000Y-58865000D03*
X53475000Y-57595000D03*
%TD*%
D27*
%TO.C,C10*%
X75850000Y-70225000D03*
X75850000Y-68675000D03*
%TD*%
D38*
%TO.C,C11*%
X87200000Y-94650000D03*
X87200000Y-92750000D03*
%TD*%
D18*
%TO.C,U8*%
X89612500Y-92800000D03*
X89612500Y-94700000D03*
X91487500Y-93750000D03*
%TD*%
D23*
%TO.C,R4*%
X67000000Y-86125000D03*
X67000000Y-87775000D03*
%TD*%
D19*
%TO.C,C5*%
X66050000Y-77500000D03*
X64500000Y-77500000D03*
%TD*%
D39*
%TO.C,U7*%
X78150000Y-91450000D03*
X78150000Y-91850000D03*
X78150000Y-92250000D03*
X78150000Y-92650000D03*
X78150000Y-93050000D03*
X78150000Y-93450000D03*
D40*
X78650000Y-93950000D03*
X79050000Y-93950000D03*
X79450000Y-93950000D03*
X79850000Y-93950000D03*
X80250000Y-93950000D03*
X80650000Y-93950000D03*
D39*
X81150000Y-93450000D03*
X81150000Y-93050000D03*
X81150000Y-92650000D03*
X81150000Y-92250000D03*
X81150000Y-91850000D03*
X81150000Y-91450000D03*
D40*
X80650000Y-90950000D03*
X80250000Y-90950000D03*
X79850000Y-90950000D03*
X79450000Y-90950000D03*
X79050000Y-90950000D03*
X78650000Y-90950000D03*
%TD*%
D41*
%TO.C,C16*%
X71595000Y-47130000D03*
D42*
X72220000Y-48130000D03*
X70970000Y-48130000D03*
D41*
X71595000Y-49130000D03*
%TD*%
D11*
%TO.C,R14*%
X83550000Y-89375000D03*
X83550000Y-87725000D03*
%TD*%
D23*
%TO.C,R5*%
X72600000Y-85675000D03*
X72600000Y-87325000D03*
%TD*%
D11*
%TO.C,R11*%
X81900000Y-89375000D03*
X81900000Y-87725000D03*
%TD*%
D43*
%TO.C,C9*%
X64175000Y-49600000D03*
X67125000Y-49600000D03*
%TD*%
D10*
%TO.C,R3*%
X56175000Y-77900000D03*
X54525000Y-77900000D03*
%TD*%
M02*
