M48
; DRILL file {KiCad 9.0.6-9.0.6~ubuntu25.10.1} date 2026-01-02T08:01:01-0800
; FORMAT={-:-/ absolute / metric / decimal}
; #@! TF.CreationDate,2026-01-02T08:01:01-08:00
; #@! TF.GenerationSoftware,Kicad,Pcbnew,9.0.6-9.0.6~ubuntu25.10.1
; #@! TF.FileFunction,MixedPlating,1,4
FMAT,2
METRIC
; #@! TA.AperFunction,Plated,PTH,ViaDrill
T1C0.300
; #@! TA.AperFunction,Plated,PTH,ComponentDrill
T2C0.300
; #@! TA.AperFunction,Plated,PTH,ComponentDrill
T3C0.800
; #@! TA.AperFunction,NonPlated,NPTH,ComponentDrill
T4C0.600
; #@! TA.AperFunction,NonPlated,NPTH,ComponentDrill
T5C0.991
; #@! TA.AperFunction,NonPlated,NPTH,ComponentDrill
T6C1.000
; #@! TA.AperFunction,NonPlated,NPTH,ComponentDrill
T7C1.500
; #@! TA.AperFunction,NonPlated,NPTH,ComponentDrill
T8C2.375
; #@! TA.AperFunction,NonPlated,NPTH,ComponentDrill
T9C3.200
; #@! TA.AperFunction,NonPlated,NPTH,ComponentDrill
T10C3.700
%
G90
G05
T1
X44.0Y-62.95
X45.45Y-60.6
X45.5Y-58.4
X46.3Y-65.95
X50.65Y-85.0
X50.75Y-64.05
X53.7Y-77.9
X53.95Y-82.65
X53.95Y-87.25
X54.9Y-64.75
X55.55Y-86.25
X55.65Y-83.5
X56.255Y-73.25
X56.35Y-92.8
X57.05Y-91.85
X57.05Y-93.35
X57.1Y-89.35
X57.15Y-87.85
X57.7Y-66.65
X59.05Y-73.35
X59.1Y-78.25
X59.15Y-59.45
X59.55Y-90.85
X60.13Y-58.7
X60.65Y-90.35
X61.19Y-56.7
X61.19Y-60.65
X61.7Y-65.85
X62.4Y-65.85
X62.95Y-87.85
X62.95Y-89.35
X62.95Y-91.85
X62.95Y-93.35
X63.1Y-63.2
X63.1Y-65.9
X63.25Y-48.85
X63.59Y-53.3
X63.59Y-59.82
X63.75Y-46.35
X64.9Y-76.6
X65.0Y-91.05
X65.56Y-59.78
X65.59Y-53.3
X65.9Y-76.55
X67.1Y-82.45
X67.25Y-76.6
X67.55Y-93.9
X67.95Y-76.6
X70.1Y-68.3
X70.1Y-69.0
X70.17Y-48.14
X70.48Y-82.67
X71.5Y-81.61
X71.53Y-80.61
X71.53Y-83.21
X71.8Y-79.72
X71.95Y-75.5
X72.2Y-69.9
X72.6Y-75.5
X73.09Y-48.14
X73.25Y-75.5
X73.3Y-69.95
X73.45Y-81.15
X73.45Y-81.95
X73.45Y-82.75
X73.45Y-83.45
X73.5Y-79.71
X73.99Y-56.7
X73.99Y-60.75
X74.1Y-70.0
X75.24Y-58.7
X75.25Y-93.0
X76.75Y-68.2
X76.8Y-70.25
X76.9Y-95.05
X77.3Y-92.45
X77.5Y-94.75
X78.5Y-95.05
X78.5Y-98.5
X78.6Y-86.85
X79.05Y-94.8
X80.25Y-98.35
X80.35Y-94.9
X81.31Y-90.47
X81.9Y-86.9
X82.05Y-93.45
X82.08Y-91.45
X82.15Y-95.5
X83.65Y-72.8
X84.4Y-94.85
X85.15Y-86.85
X85.25Y-97.6
X88.312Y-92.8
X88.4Y-94.65
X91.462Y-92.55
T2
X65.3Y-46.1
X65.3Y-47.1
T4
X58.73Y-85.1
X58.73Y-96.1
T5
X68.825Y-92.984
X73.905Y-91.968
X73.905Y-94.0
T6
X80.117Y-75.633
T7
X80.117Y-67.393
T8
X68.825Y-90.444
X68.825Y-95.524
X72.0Y-90.444
X72.0Y-95.524
T9
X49.5Y-50.0
X49.5Y-93.5
X107.5Y-50.0
X107.5Y-93.5
T10
X80.371Y-62.263
X80.371Y-80.763
X112.617Y-71.513
T3
X58.56Y-86.75G85X58.56Y-86.25
G05
X58.56Y-94.95G85X58.56Y-94.45
G05
X61.5Y-86.75G85X61.5Y-86.25
G05
X61.5Y-94.95G85X61.5Y-94.45
G05
M30
